<?xml version="1.0" encoding="UTF-8"?>
<svg enable-background="new" viewBox="0 0 220.0542 220.05415" xmlns="http://www.w3.org/2000/svg">
 <defs>
  <radialGradient id="a" cx="97.789" cy="115.08" r="110.03" gradientUnits="userSpaceOnUse">
   <stop stop-color="#00682b" offset="0"/>
   <stop stop-color="#227b24" offset=".45"/>
   <stop stop-color="#448f1e" offset=".7"/>
   <stop stop-color="#88b611" offset="1"/>
  </radialGradient>
 </defs>
 <g transform="translate(12.238 -5.0525)">
  <path d="m-4.8076 54.401c-3.9468 3.9844-6.5842 9.0823-7.1816 14.606-4.4268 40.936 51.225 43.065 87.372 46.095-36.147 3.0293-91.798 5.1185-87.372 46.05 2.1239 19.64 29.92 33.808 51.508 12.22-21.588 21.588-7.4428 49.362 12.198 51.486 40.911 4.4241 43.046-51.157 46.072-87.306 3.0268 36.149 5.1614 91.73 46.072 87.306 19.64-2.1239 33.808-29.876 12.22-51.464 21.588 21.588 49.362 7.3986 51.486-12.242 4.4263-40.932-51.225-43.021-87.372-46.05 36.147-3.0298 91.799-5.1582 87.372-46.095-2.1239-19.64-29.898-33.786-51.486-12.198 21.588-21.588 7.4207-49.384-12.22-51.508-40.957-4.4291-43.04 51.293-46.072 87.438-3.0323-36.145-5.1152-91.867-46.072-87.438-19.64 2.1239-33.808 29.92-12.22 51.508-15.517-15.517-34.218-12.591-44.305-2.4086z" fill="url(#a)"/>
 </g>
</svg>
